<mxfile host="app.diagrams.net" agent="Mozilla/5.0 (Windows NT 10.0; Win64; x64) AppleWebKit/537.36 (KHTML, like Gecko) Chrome/131.0.0.0 Safari/537.36" version="25.0.3">
  <diagram name="Page-1" id="extfH8xEuFHN5oKw8o08">
    <mxGraphModel dx="1206" dy="638" grid="1" gridSize="10" guides="1" tooltips="1" connect="1" arrows="1" fold="1" page="1" pageScale="1" pageWidth="850" pageHeight="1100" math="0" shadow="0">
      <root>
        <mxCell id="0" />
        <mxCell id="1" parent="0" />
        <mxCell id="AonOkrr1OYoMYbhP8naX-3" value="" style="edgeStyle=orthogonalEdgeStyle;rounded=0;orthogonalLoop=1;jettySize=auto;html=1;" edge="1" parent="1" source="AonOkrr1OYoMYbhP8naX-1" target="AonOkrr1OYoMYbhP8naX-2">
          <mxGeometry relative="1" as="geometry" />
        </mxCell>
        <mxCell id="AonOkrr1OYoMYbhP8naX-1" value="เริ่ม" style="strokeWidth=2;html=1;shape=mxgraph.flowchart.start_1;whiteSpace=wrap;" vertex="1" parent="1">
          <mxGeometry x="370" y="80" width="100" height="60" as="geometry" />
        </mxCell>
        <mxCell id="AonOkrr1OYoMYbhP8naX-5" value="" style="edgeStyle=orthogonalEdgeStyle;rounded=0;orthogonalLoop=1;jettySize=auto;html=1;" edge="1" parent="1" source="AonOkrr1OYoMYbhP8naX-2" target="AonOkrr1OYoMYbhP8naX-4">
          <mxGeometry relative="1" as="geometry" />
        </mxCell>
        <mxCell id="AonOkrr1OYoMYbhP8naX-2" value="กำหนดตัวแปรมา4ตัว" style="whiteSpace=wrap;html=1;strokeWidth=2;" vertex="1" parent="1">
          <mxGeometry x="360" y="220" width="120" height="60" as="geometry" />
        </mxCell>
        <mxCell id="AonOkrr1OYoMYbhP8naX-63" value="" style="edgeStyle=orthogonalEdgeStyle;rounded=0;orthogonalLoop=1;jettySize=auto;html=1;" edge="1" parent="1" source="AonOkrr1OYoMYbhP8naX-4" target="AonOkrr1OYoMYbhP8naX-57">
          <mxGeometry relative="1" as="geometry" />
        </mxCell>
        <mxCell id="AonOkrr1OYoMYbhP8naX-4" value="รับค่าตัวที่1-3" style="shape=parallelogram;perimeter=parallelogramPerimeter;whiteSpace=wrap;html=1;fixedSize=1;strokeWidth=2;" vertex="1" parent="1">
          <mxGeometry x="360" y="360" width="120" height="60" as="geometry" />
        </mxCell>
        <mxCell id="AonOkrr1OYoMYbhP8naX-65" value="" style="edgeStyle=orthogonalEdgeStyle;rounded=0;orthogonalLoop=1;jettySize=auto;html=1;" edge="1" parent="1" source="AonOkrr1OYoMYbhP8naX-57" target="AonOkrr1OYoMYbhP8naX-64">
          <mxGeometry relative="1" as="geometry" />
        </mxCell>
        <mxCell id="AonOkrr1OYoMYbhP8naX-57" value="คำนวน" style="shape=process;whiteSpace=wrap;html=1;backgroundOutline=1;" vertex="1" parent="1">
          <mxGeometry x="360" y="480" width="120" height="60" as="geometry" />
        </mxCell>
        <mxCell id="AonOkrr1OYoMYbhP8naX-60" value="" style="edgeStyle=orthogonalEdgeStyle;rounded=0;orthogonalLoop=1;jettySize=auto;html=1;" edge="1" parent="1" source="AonOkrr1OYoMYbhP8naX-58" target="AonOkrr1OYoMYbhP8naX-59">
          <mxGeometry relative="1" as="geometry" />
        </mxCell>
        <mxCell id="AonOkrr1OYoMYbhP8naX-58" value="เริ่มคำนวน" style="shape=process;whiteSpace=wrap;html=1;backgroundOutline=1;" vertex="1" parent="1">
          <mxGeometry x="10" y="70" width="120" height="60" as="geometry" />
        </mxCell>
        <mxCell id="AonOkrr1OYoMYbhP8naX-62" value="" style="edgeStyle=orthogonalEdgeStyle;rounded=0;orthogonalLoop=1;jettySize=auto;html=1;" edge="1" parent="1" source="AonOkrr1OYoMYbhP8naX-59" target="AonOkrr1OYoMYbhP8naX-61">
          <mxGeometry relative="1" as="geometry" />
        </mxCell>
        <mxCell id="AonOkrr1OYoMYbhP8naX-59" value="ตัวเลขที่รับมา3ตัวเอามาบวกกัน" style="whiteSpace=wrap;html=1;" vertex="1" parent="1">
          <mxGeometry x="10" y="210" width="120" height="60" as="geometry" />
        </mxCell>
        <mxCell id="AonOkrr1OYoMYbhP8naX-61" value="จบคำนวน" style="shape=process;whiteSpace=wrap;html=1;backgroundOutline=1;" vertex="1" parent="1">
          <mxGeometry x="10" y="350" width="120" height="60" as="geometry" />
        </mxCell>
        <mxCell id="AonOkrr1OYoMYbhP8naX-67" value="" style="edgeStyle=orthogonalEdgeStyle;rounded=0;orthogonalLoop=1;jettySize=auto;html=1;" edge="1" parent="1" source="AonOkrr1OYoMYbhP8naX-64" target="AonOkrr1OYoMYbhP8naX-66">
          <mxGeometry relative="1" as="geometry" />
        </mxCell>
        <mxCell id="AonOkrr1OYoMYbhP8naX-64" value="แสดงค่าที่คำนวน" style="shape=parallelogram;perimeter=parallelogramPerimeter;whiteSpace=wrap;html=1;fixedSize=1;" vertex="1" parent="1">
          <mxGeometry x="360" y="620" width="120" height="60" as="geometry" />
        </mxCell>
        <mxCell id="AonOkrr1OYoMYbhP8naX-66" value="จบ" style="strokeWidth=2;html=1;shape=mxgraph.flowchart.start_1;whiteSpace=wrap;" vertex="1" parent="1">
          <mxGeometry x="370" y="750" width="100" height="60" as="geometry" />
        </mxCell>
      </root>
    </mxGraphModel>
  </diagram>
</mxfile>
